<?xml version="1.0" encoding="UTF-8" standalone="no"?>
<!-- Created with Inkscape (http://www.inkscape.org/) -->
<svg
   xmlns:svg="http://www.w3.org/2000/svg"
   xmlns="http://www.w3.org/2000/svg"
   version="1.0"
   width="870.19409"
   height="288.12506"
   id="svg1978">
  <defs
     id="defs1980" />
  <g
     transform="translate(-156.6481,-430.5854)"
     id="layer1">
    <g
       transform="translate(2.871094e-5,4.233398e-5)"
       id="g3427">
      <path
         d="M 450.71387,470.42913 C 446.30511,472.68049 436.54044,473.24163 428.37012,473.24163 L 347.74512,473.24163 C 302.42855,473.24163 274.61647,488.07267 270.05762,510.30413 C 269.2884,514.15006 269.56009,518.08339 270.80762,521.55413 L 285.87012,521.55413 C 286.98638,497.54039 312.81271,483.83538 353.02637,483.83538 L 375.46387,483.74163 C 362.38764,491.43356 351.48428,501.48078 343.08887,520.42913 C 342.94816,520.80432 342.7765,521.17895 342.58887,521.55413 L 365.21387,521.55413 C 373.70317,500.54213 379.57758,489.83891 388.33887,483.74163 L 420.99512,483.74163 C 438.79906,483.27262 446.49196,478.77679 451.93262,471.92913 L 450.71387,470.42913 z M 342.58887,521.55413 C 339.29638,529.33981 329.6307,553.91772 322.08887,573.99163 C 319.44357,581.02692 317.06176,587.48881 315.30762,592.46038 C 306.612,615.81748 301.05222,626.52063 294.12012,630.46038 L 295.24512,632.61663 C 314.70938,633.74228 326.27207,623.78341 333.77637,605.39788 C 337.42537,596.48656 341.67726,584.87286 345.58887,573.99163 C 349.2847,563.76703 352.66258,554.18253 354.93262,548.17913 C 358.85368,537.86072 362.20283,529.05837 365.21387,521.64788 L 342.58887,521.55413 z M 270.80762,521.55413 C 273.04021,528.02661 278.49968,533.17868 286.93262,534.02288 L 288.08887,533.17913 C 286.4004,530.17739 285.76382,525.30586 285.83887,522.30413 C 285.84825,522.11649 285.86074,521.83551 285.87012,521.64788 L 270.80762,521.55413 z M 628.37012,472.21038 C 605.66965,472.39802 577.63136,477.56221 558.02637,518.08538 C 554.36807,518.64821 550.90317,519.77186 547.80762,521.55413 C 545.8378,522.77359 544.05858,524.08436 542.37012,525.86663 L 543.21387,527.74163 C 546.40324,526.61599 550.14892,526.33538 554.37012,526.33538 C 551.74356,532.99542 546.31084,547.54572 540.77637,562.27288 C 537.52305,566.64163 534.24889,570.54407 530.99512,573.99163 L 530.90137,573.99163 C 517.86267,587.87459 505.31314,594.42906 495.65137,594.52288 C 488.99133,594.61663 486.27637,591.05786 486.27637,584.58538 C 486.18257,581.39601 486.83848,577.08719 487.49512,573.99163 C 487.68267,573.33506 487.77623,572.67946 487.96387,572.11663 C 501.00257,565.64416 514.01963,558.40488 525.74512,546.21038 C 532.21753,539.17508 536.71382,532.2458 536.90137,524.92913 C 536.90137,523.70968 536.80774,522.58596 536.52637,521.55413 C 535.30692,516.86394 531.18659,514.52288 524.15137,514.42913 C 523.69994,514.42327 523.2646,514.4126 522.80762,514.42913 C 515.95299,514.67715 508.50495,517.42093 501.55762,521.55413 C 496.30459,524.7435 491.34118,528.6767 487.30762,532.99163 C 476.98922,544.24805 468.52804,559.35829 465.62012,573.99163 C 464.96349,577.27481 464.58887,580.55234 464.58887,583.74163 C 464.49507,595.7485 470.79831,605.77314 487.12012,605.39788 C 504.47383,604.83506 520.29979,594.71859 533.99512,580.36663 C 530.52439,589.55939 527.52733,597.52044 525.83887,601.74163 C 520.67968,614.49895 516.93705,624.73824 509.15137,630.74163 L 510.08887,632.24163 C 532.97698,633.55484 541.52091,617.50672 550.99512,591.14788 C 553.15258,585.2383 555.11889,579.5261 557.18262,573.99163 C 563.93648,554.94953 569.83612,538.43619 574.71387,526.14788 C 584.6571,526.14788 598.92806,526.5239 606.90137,524.64788 C 590.39194,531.96456 575.93506,554.19909 571.71387,573.99163 C 570.5882,579.24464 570.11987,584.30143 570.58887,588.99163 C 571.52697,598.55958 577.14431,605.21038 589.52637,605.21038 C 607.25526,605.3042 622.92691,589.75069 632.96387,573.99163 C 636.3408,568.64486 639.15021,563.21308 641.12012,558.52288 C 645.52886,547.73547 648.33855,538.62183 648.90137,529.52288 C 654.52965,528.49106 659.99365,527.46064 662.62012,527.08538 C 667.96697,526.335 666.93352,532.14531 665.33887,536.64788 C 661.11769,548.09192 655.77912,561.89102 650.90137,573.99163 C 644.24133,590.40732 638.58887,603.61651 638.58887,603.89788 L 657.27637,603.89788 C 663.0922,591.51581 667.39887,582.43402 671.80762,573.99163 C 673.40234,570.89615 674.99415,567.99337 676.68262,564.99163 C 684.37448,551.57776 701.74114,529.33538 708.68262,529.33538 C 711.12152,529.24164 711.7767,530.92778 711.30762,533.27288 C 710.3696,539.37009 699.74892,557.57601 693.18262,573.99163 L 714.02637,573.99163 C 715.52721,570.52088 716.93204,567.5241 717.96387,565.36663 C 723.6859,553.07833 733.90169,535.15347 733.33887,525.39788 C 733.24506,524.08469 732.87044,522.77352 732.30762,521.64788 L 704.65137,521.55413 C 695.27096,527.55761 686.15593,538.04694 678.18262,550.61663 L 677.80762,550.42913 C 682.87304,539.07883 686.80768,528.30701 686.71387,523.24163 C 686.7139,522.67882 686.62011,522.11695 686.52637,521.55413 C 685.8697,517.98958 683.24795,516.49157 678.27637,516.58538 C 674.24278,516.58538 668.81071,518.17829 663.46387,519.58538 C 660.93115,520.24194 658.40292,520.8975 655.77637,521.55413 C 650.52343,522.86741 645.06096,524.1785 639.24512,525.39788 C 633.89836,526.24215 632.21387,527.08429 632.21387,528.96038 C 632.77669,544.34418 627.71778,561.23439 620.87012,573.99163 C 614.21008,586.27994 605.87405,594.89788 599.12012,594.89788 C 593.21053,594.89787 591.77637,590.68252 591.77637,584.67913 C 591.77637,581.39593 592.15092,577.83764 592.99512,573.99163 C 597.12251,553.54244 611.58078,527.83808 625.74512,523.14788 C 627.24594,522.67888 628.6508,522.39808 629.68262,522.11663 L 629.87012,521.55413 L 631.74512,516.49163 C 628.18063,517.14826 619.74763,517.33538 615.33887,517.33538 C 610.8363,517.4292 578.37012,517.42913 578.37012,517.42913 C 588.1257,494.16583 601.82744,479.14825 621.80762,478.39788 C 634.2835,477.83505 642.61966,482.5187 643.37012,489.74163 C 643.93294,495.74503 642.15406,500.645 637.37012,505.71038 L 638.77637,507.02288 C 649.65761,501.86367 657.27637,493.02635 657.27637,487.02288 C 657.37018,477.73637 646.28665,472.02282 628.37012,472.21038 z M 704.65137,521.55413 L 732.30762,521.55413 C 730.61914,518.5524 727.06103,516.21038 721.15137,516.21038 C 715.61701,516.21038 710.09195,518.17721 704.65137,521.55413 z M 693.18262,573.99163 C 690.0871,581.68356 687.83881,588.98842 687.93262,594.61663 C 688.12026,605.7793 694.23921,612.55264 704.55762,615.08538 L 706.62012,613.86663 C 705.40065,611.52154 705.21393,608.30612 705.12012,604.83538 C 705.0263,596.39309 709.89899,583.55959 714.02637,574.08538 L 693.18262,573.99163 z M 782.68262,481.67913 C 777.52342,481.77295 772.27701,486.55086 771.15137,492.27288 C 769.93189,498.08874 773.21085,502.71045 778.46387,502.61663 C 783.71689,502.52282 788.86941,497.71366 790.08887,491.99163 C 791.21454,486.17578 787.93557,481.58532 782.68262,481.67913 z M 490.87012,482.24163 L 472.65137,485.71038 C 469.93101,486.36701 468.24563,488.42797 467.30762,490.49163 C 462.61742,500.2472 457.9355,510.39153 452.87012,521.55413 L 473.58887,521.55413 C 480.53035,506.45179 487.02411,492.56003 490.87012,482.24163 z M 452.87012,521.55413 C 448.36754,531.59117 443.59181,542.39094 438.33887,554.49163 C 437.11942,557.21191 435.78646,560.11496 434.55762,563.11663 C 431.89363,566.86881 429.03439,570.52089 425.99512,573.99163 C 415.85497,585.52949 404.05737,594.42906 393.49512,594.52288 C 387.77309,594.61663 385.22636,591.33916 385.24512,584.67913 C 385.2545,581.39593 385.88849,577.08719 386.52637,573.99163 C 386.67647,573.33506 386.82322,572.67946 386.96387,572.11663 C 399.96511,565.64416 413.01342,558.40488 424.77637,546.21038 C 431.28636,539.17508 435.80756,532.2458 435.90137,524.92913 C 435.90136,523.70968 435.80774,522.58596 435.52637,521.55413 C 434.37258,516.86394 430.21792,514.52288 423.18262,514.42913 C 422.73412,514.42327 422.26269,514.4126 421.80762,514.42913 C 414.98154,514.67715 407.46977,517.42093 400.55762,521.55413 C 395.26707,524.7435 390.32242,528.6767 386.30762,532.99163 C 375.97044,544.24805 367.51239,559.35829 364.65137,573.99163 C 364.00419,577.27481 363.65764,580.55234 363.62012,583.74163 C 363.48878,596.02995 369.31417,605.77314 385.21387,605.39788 C 402.20177,604.83506 418.81205,591.7157 427.43262,582.33538 C 426.31636,586.27512 425.62012,590.02095 425.62012,593.30413 C 425.62012,604.18537 431.07642,611.89596 441.80762,615.27288 L 443.96387,614.24163 C 443.02579,611.2399 442.745,608.21244 443.02637,604.64788 C 443.68301,595.8303 446.68006,586.09232 451.18262,573.99163 C 452.12062,571.55278 453.15079,569.02442 454.18262,566.30413 C 459.90464,551.76453 467.02257,536.09367 473.58887,521.64788 L 452.87012,521.55413 z M 830.80762,515.36663 C 824.14759,515.46044 816.43692,517.42676 808.93262,521.55413 C 803.77342,524.46205 798.62282,528.39499 793.93262,533.46038 C 782.04993,546.37235 775.13482,561.62633 772.21387,573.99163 L 772.18262,573.99163 C 772.17662,574.02282 772.18862,574.05425 772.18262,574.08538 C 771.71966,576.48838 771.24285,578.7055 771.05762,580.83538 C 764.4913,588.52731 757.24787,593.58531 752.37012,593.67913 C 749.64976,593.86677 747.77637,592.46212 747.77637,589.46038 C 747.68255,586.92773 749.08738,581.77673 751.62012,575.11663 C 751.80765,574.74144 751.90124,574.3669 752.08887,573.99163 C 757.81088,559.63973 765.98948,542.19095 775.93262,521.55413 C 776.68305,520.0533 777.43224,518.3676 778.18262,516.77288 C 778.1826,516.77288 761.21529,519.67881 758.77637,520.24163 C 757.74453,520.52309 756.77689,520.99131 755.93262,521.55413 C 754.71319,522.3984 753.68301,523.61573 753.02637,525.11663 C 745.80353,540.40661 737.1857,558.32781 731.74512,571.55413 C 731.4637,572.39833 731.08907,573.14744 730.80762,573.99163 C 727.99351,581.40211 726.40137,588.33287 726.40137,592.64788 C 726.40136,600.80883 731.5519,605.86676 741.49512,605.67913 C 751.81345,605.39767 762.42761,599.30895 771.15137,590.86663 C 772.83981,599.77794 779.20642,606.14807 792.24512,605.77288 C 805.75284,605.39764 818.80242,596.77853 827.90137,586.92913 C 827.90135,587.86713 827.80762,588.89729 827.80762,589.83538 C 827.80761,598.93433 832.58289,605.67913 842.99512,605.67913 C 854.25152,605.67912 867.2081,597.24999 877.33887,582.71038 L 877.71387,582.89788 C 876.77585,586.2748 875.74519,592.17689 875.65137,596.11663 C 875.37,607.09167 881.83361,613.30311 891.02637,615.17913 L 893.08887,614.33538 C 889.89951,606.36209 894.40021,586.55784 896.37012,579.99163 C 897.02673,578.02172 897.68223,576.05536 898.33887,573.99163 C 904.81137,554.38671 913.80435,533.46719 919.52637,521.55413 C 919.71401,521.27276 919.80756,520.89801 919.99512,520.61663 C 917.18104,518.27154 910.53042,516.49177 903.49512,516.30413 C 902.25223,516.25723 901.01835,516.22825 899.77637,516.24163 C 891.15898,516.33444 882.59332,517.92935 874.37012,521.55413 L 874.15137,521.55413 C 861.30025,527.36997 849.37578,537.9816 839.52637,555.42913 C 836.52465,560.58833 833.2464,566.67533 830.99512,573.24163 C 830.71376,573.52301 830.5265,573.80408 830.33887,573.99163 C 828.08759,576.8058 825.9332,579.3348 824.90137,580.36663 C 818.71037,586.3701 809.87519,593.96025 800.96387,594.14788 C 795.8047,594.14787 792.99513,590.58898 793.08887,584.30413 C 793.08885,581.02102 793.4635,577.55612 794.21387,574.08538 L 783.21387,574.02288 L 794.21387,573.99163 C 798.81027,550.82215 816.64418,523.05412 829.21387,522.96038 C 833.24746,522.96038 834.93262,524.7397 834.93262,528.11663 C 834.93262,532.15019 832.1223,537.7709 828.27637,541.33538 L 829.96387,542.83538 C 839.62563,539.08319 848.7138,532.24567 848.80762,525.11663 C 848.8076,523.80336 848.52663,522.58596 848.05762,521.55413 C 845.71252,516.39493 837.93674,515.36663 830.80762,515.36663 z M 417.52637,523.24163 C 420.30295,523.33545 421.41075,525.20898 421.40137,527.74163 C 421.34507,539.2795 407.03373,554.20415 388.71387,565.08538 C 393.31025,546.98129 406.15737,523.24163 417.52637,523.24163 z M 518.52637,523.24163 C 521.34048,523.33545 522.37012,525.20898 522.37012,527.74163 C 522.2763,539.2795 508.03684,554.20415 489.74512,565.08538 C 494.24768,546.98129 507.17614,523.24163 518.52637,523.24163 z M 894.80762,523.83538 C 896.44412,523.78777 897.96305,523.95631 899.37012,524.27288 C 897.96303,527.1808 891.40432,540.39108 886.24512,552.30413 C 882.96199,559.90224 879.12263,567.42542 874.80762,573.99163 C 868.5228,583.46584 861.56148,590.77192 854.90137,592.46038 C 850.96164,593.39839 848.7138,591.71243 848.80762,588.05413 C 848.90141,584.20821 849.93159,579.33847 851.71387,573.99163 C 857.52971,556.07517 871.51834,532.80785 885.49512,526.24163 C 889.01277,524.60004 892.08012,523.91474 894.80762,523.83538 z M 556.40137,668.64788 C 379.76941,668.90551 211.24512,671.07215 211.24512,673.71038 C 211.24512,676.52447 402.97771,678.86663 591.77637,678.86663 C 780.50936,678.86664 972.24512,676.52448 972.24512,673.71038 C 972.2451,670.89626 780.50936,668.64788 591.77637,668.64788 C 579.97645,668.64788 568.17683,668.6307 556.40137,668.64788 z"
         id="path2259"
         style="fill:#04256c;fill-opacity:1;fill-rule:evenodd;stroke:none" />
    </g>
  </g>
</svg>
