<?xml version="1.0" encoding="utf-8"?>
<!-- Generator: Adobe Illustrator 19.2.0, SVG Export Plug-In . SVG Version: 6.00 Build 0)  -->
<svg version="1.1" id="Layer_1" xmlns="http://www.w3.org/2000/svg" xmlns:xlink="http://www.w3.org/1999/xlink" x="0px" y="0px"
	 viewBox="0 0 800 800" style="enable-background:new 0 0 800 800;" xml:space="preserve">
<style type="text/css">
	.st0{fill:#18A84A;}
	.st1{fill:#254498;}
</style>
<g>
	<path class="st0" d="M526,413.7c0.3-4.6,0.3-9.3,0.3-13.9c0-15.9-1.3-31.2-3.7-46c2.3,16.9,3.6,34.2,3.6,51.8
		C526.2,408.3,526,411,526,413.7"/>
	<path class="st1" d="M578.8,183.6c-47.6-58.3-111.2-90.3-178.9-90.3c-46.5,0-91,15.2-129.8,43.5c17.1-6.2,34.8-9.5,53-9.5
		c55,0,106.5,29.6,144.9,83.3c28.4,39.8,47.2,89.5,54.6,143.3c2.4,14.8,3.7,30.1,3.7,46c0,4.6-0.1,9.3-0.3,13.9
		c-0.4,23.5-3.1,46.8-7.8,69.4c-11.8,56.1-37,106.8-70.7,142.7c-35.8,38.1-78.8,58.2-124.3,58.2c-7.5,0-15.1-0.5-22.5-1.7
		c30.9,16,64.6,24.5,99.1,24.5c67.7,0,131.1-32.1,178.9-90.3c30.7-37.5,52.5-82.9,64-132.5c6.3-27,9.5-55.1,9.5-84
		C652.2,318.3,626.1,241.3,578.8,183.6"/>
	<path class="st1" d="M268.3,399.9c0-10.2,0.6-20.2,1.6-29.9c0.7-7.3,1.8-14.4,3.1-21.4c15.1-81.4,65.1-141.5,124.4-141.5
		c16.9,0,33.1,4.9,47.9,13.7c-33.3-45-76.5-69.7-122-69.7c-70.4,0-133.7,60-162.2,149.9c-1.7,6.3-3.4,12.8-4.8,19.3
		c-0.9,4.2-1.7,8.3-2.6,12.7c-4,21.7-6,44.2-6,66.9c0,73.4,21,142.8,59.6,198.2c32.4,40.1,73.2,61.9,116,61.9
		c38.2,0,74.9-17.5,105.8-50.2c11.2-12,21.5-25.8,30.4-41.1c-18.5,15.2-39.7,23.9-62.1,23.9C326.1,592.5,268.3,506,268.3,399.9"/>
</g>
</svg>
